<!-- Generated by IcoMoon.io -->
<svg version="1.1" xmlns="http://www.w3.org/2000/svg" width="20" height="20" viewBox="0 0 20 20">
<title>eye</title>
<path d="M10 7.5q1.016 0 1.758 0.742t0.742 1.758-0.742 1.758-1.758 0.742-1.758-0.742-0.742-1.758 0.742-1.758 1.758-0.742zM10 14.18q1.719 0 2.949-1.23t1.23-2.949-1.23-2.949-2.949-1.23-2.949 1.23-1.23 2.949 1.23 2.949 2.949 1.23zM10 3.75q3.086 0 5.586 1.719t3.594 4.531q-1.094 2.813-3.594 4.531t-5.586 1.719-5.586-1.719-3.594-4.531q1.094-2.813 3.594-4.531t5.586-1.719z"></path>
</svg>
