<?xml version="1.0" encoding="utf-8"?>
<!-- Generator: Adobe Illustrator 25.2.1, SVG Export Plug-In . SVG Version: 6.00 Build 0)  -->
<svg version="1.1" id="Capa_1" xmlns="http://www.w3.org/2000/svg" xmlns:xlink="http://www.w3.org/1999/xlink" x="0px" y="0px"
	 viewBox="0 0 20 20" style="enable-background:new 0 0 20 20;" xml:space="preserve">
<ellipse cx="7.5" cy="8" rx="1.5" ry="1.8"/>
<path d="M10,0.4c-5.3,0-9.6,4.3-9.6,9.6s4.3,9.6,9.6,9.6c5.3,0,9.6-4.3,9.6-9.6C19.6,4.7,15.3,0.4,10,0.4z M10,18c-4.4,0-8-3.6-8-8
	c0-4.4,3.6-8,8-8s8,3.6,8,8C18,14.4,14.4,18,10,18z"/>
<path d="M14.3,11.3c-0.4-0.2-0.8,0-1,0.3c0,0.1-0.9,1.6-3.3,1.6c-2.5,0-3.3-1.5-3.3-1.6c-0.2-0.4-0.6-0.5-1-0.3
	c-0.4,0.2-0.5,0.6-0.3,1c0.1,0.1,1.2,2.4,4.7,2.4c3.4,0,4.6-2.3,4.7-2.4C14.9,12,14.7,11.5,14.3,11.3z"/>
<path d="M11.2,8.8h2.5c0.4,0,0.8-0.3,0.8-0.8s-0.3-0.8-0.8-0.8h-2.5c-0.4,0-0.8,0.3-0.8,0.8C10.5,8.4,10.8,8.8,11.2,8.8z"/>
</svg>
