<!-- Generated by IcoMoon.io -->
<svg version="1.1" xmlns="http://www.w3.org/2000/svg" width="20" height="20" viewBox="0 0 20 20">
<title>folder-shared</title>
<path d="M15.82 14.18v-0.859q0-0.742-1.152-1.191t-2.168-0.449-2.168 0.449-1.152 1.191v0.859h6.641zM12.5 7.5q-0.664 0-1.172 0.508t-0.508 1.172 0.508 1.152 1.172 0.488 1.172-0.488 0.508-1.152-0.508-1.172-1.172-0.508zM16.68 5q0.664 0 1.152 0.508t0.488 1.172v8.32q0 0.664-0.488 1.172t-1.152 0.508h-13.359q-0.664 0-1.152-0.508t-0.488-1.172v-10q0-0.664 0.488-1.172t1.152-0.508h5l1.68 1.68h6.68z"></path>
</svg>
