<?xml version="1.0" encoding="utf-8"?>
<!-- Generator: Adobe Illustrator 25.2.1, SVG Export Plug-In . SVG Version: 6.00 Build 0)  -->
<svg version="1.1" id="Capa_1" xmlns="http://www.w3.org/2000/svg" xmlns:xlink="http://www.w3.org/1999/xlink" x="0px" y="0px"
	 viewBox="0 0 20 20" style="enable-background:new 0 0 20 20;" xml:space="preserve">
<style type="text/css">
	.st0{fill:#FFFFFF;}
</style>
<path class="st0" d="M14.8,4.3c1.8,1.5,2.7,3.4,2.7,5.7c0,2.1-0.7,3.9-2.2,5.3s-3.2,2.2-5.3,2.2s-3.9-0.7-5.3-2.2S2.5,12.1,2.5,10
	c0-0.9,0.3-2,0.8-3.1s1.1-2,1.9-2.6l1.2,1.2C5.7,6,5.2,6.7,4.8,7.5S4.2,9.2,4.2,10c0,1.6,0.6,3,1.7,4.1s2.5,1.7,4.1,1.7
	s3-0.6,4.1-1.7s1.7-2.5,1.7-4.1c0-0.8-0.2-1.6-0.6-2.5c-0.4-0.9-0.9-1.6-1.5-2L14.8,4.3z M10.8,2.5v8.3H9.2V2.5H10.8z"/>
</svg>
