<!-- Generated by IcoMoon.io -->
<svg version="1.1" xmlns="http://www.w3.org/2000/svg" width="20" height="20" viewBox="0 0 20 20">
<title>remove</title>
<path d="M10 16.68q2.734 0 4.707-1.973t1.973-4.707-1.973-4.707-4.707-1.973-4.707 1.973-1.973 4.707 1.973 4.707 4.707 1.973zM10 1.68q3.438 0 5.879 2.441t2.441 5.879-2.441 5.879-5.879 2.441-5.879-2.441-2.441-5.879 2.441-5.879 5.879-2.441zM12.148 6.68l1.172 1.172-2.148 2.148 2.148 2.148-1.172 1.172-2.148-2.148-2.148 2.148-1.172-1.172 2.148-2.148-2.148-2.148 1.172-1.172 2.148 2.148z"></path>
</svg>
