<?xml version="1.0" encoding="utf-8"?>
<!-- Generator: Adobe Illustrator 25.2.1, SVG Export Plug-In . SVG Version: 6.00 Build 0)  -->
<svg version="1.1" id="Capa_1" xmlns="http://www.w3.org/2000/svg" xmlns:xlink="http://www.w3.org/1999/xlink" x="0px" y="0px"
	 viewBox="0 0 20 20" style="enable-background:new 0 0 20 20;" xml:space="preserve">
<style type="text/css">
	.st0{fill:#FFFFFF;}
</style>
<path class="st0" d="M10,12.9c0.8,0,1.5-0.3,2.1-0.9c0.6-0.6,0.9-1.3,0.9-2.1c0-0.8-0.3-1.5-0.9-2.1c-0.6-0.6-1.3-0.9-2.1-0.9
	S8.5,7.4,7.9,7.9C7.4,8.5,7.1,9.2,7.1,10c0,0.8,0.3,1.5,0.9,2.1C8.5,12.6,9.2,12.9,10,12.9z M16.2,10.8l1.8,1.4
	c0.2,0.1,0.2,0.3,0.1,0.5l-1.7,2.9c-0.1,0.2-0.3,0.2-0.5,0.2L13.8,15c-0.5,0.4-1,0.7-1.4,0.8L12.1,18c-0.1,0.2-0.2,0.4-0.4,0.4H8.3
	c-0.2,0-0.3-0.1-0.4-0.4l-0.3-2.2c-0.5-0.2-1-0.5-1.4-0.8l-2.1,0.8c-0.2,0.1-0.4,0-0.5-0.2L2,12.7c-0.1-0.2-0.1-0.4,0.1-0.5l1.8-1.4
	c0-0.2,0-0.5,0-0.8c0-0.4,0-0.6,0-0.8L2,7.8C1.8,7.7,1.8,7.5,2,7.3l1.7-2.9c0.1-0.2,0.3-0.2,0.5-0.2L6.2,5c0.5-0.4,1-0.7,1.4-0.8
	L7.9,2C8,1.8,8.1,1.7,8.3,1.7h3.4c0.2,0,0.3,0.1,0.4,0.4l0.3,2.2c0.5,0.2,1,0.5,1.4,0.8l2.1-0.8c0.2-0.1,0.4,0,0.5,0.2L18,7.3
	c0.1,0.2,0.1,0.4-0.1,0.5l-1.8,1.4c0,0.2,0,0.5,0,0.8S16.2,10.6,16.2,10.8z"/>
</svg>
