<!-- Generated by IcoMoon.io -->
<svg version="1.1" xmlns="http://www.w3.org/2000/svg" width="20" height="20" viewBox="0 0 20 20">
<title>settings</title>
<path d="M10 12.93q1.211 0 2.070-0.859t0.859-2.070-0.859-2.070-2.070-0.859-2.070 0.859-0.859 2.070 0.859 2.070 2.070 0.859zM16.211 10.82l1.758 1.367q0.273 0.195 0.078 0.547l-1.68 2.891q-0.156 0.273-0.508 0.156l-2.070-0.82q-0.82 0.586-1.406 0.82l-0.313 2.188q-0.078 0.352-0.391 0.352h-3.359q-0.313 0-0.391-0.352l-0.313-2.188q-0.742-0.313-1.406-0.82l-2.070 0.82q-0.352 0.117-0.508-0.156l-1.68-2.891q-0.195-0.352 0.078-0.547l1.758-1.367q-0.039-0.273-0.039-0.82t0.039-0.82l-1.758-1.367q-0.273-0.195-0.078-0.547l1.68-2.891q0.156-0.273 0.508-0.156l2.070 0.82q0.82-0.586 1.406-0.82l0.313-2.188q0.078-0.352 0.391-0.352h3.359q0.313 0 0.391 0.352l0.313 2.188q0.742 0.313 1.406 0.82l2.070-0.82q0.352-0.117 0.508 0.156l1.68 2.891q0.195 0.352-0.078 0.547l-1.758 1.367q0.039 0.273 0.039 0.82t-0.039 0.82z"></path>
</svg>
