<svg aria-hidden="true" style="position: absolute; width: 0; height: 0; overflow: hidden;" version="1.1" xmlns="http://www.w3.org/2000/svg" xmlns:xlink="http://www.w3.org/1999/xlink">
<defs>
<symbol id="icon-neutral" viewBox="0 0 20 20">
<path d="M10 0.4c-5.302 0-9.6 4.298-9.6 9.6s4.298 9.6 9.6 9.6c5.301 0 9.6-4.298 9.6-9.601 0-5.301-4.299-9.599-9.6-9.599zM10 17.599c-4.197 0-7.6-3.402-7.6-7.6 0-4.197 3.402-7.6 7.6-7.6 4.197 0 7.6 3.402 7.6 7.6s-3.403 7.6-7.6 7.6zM12.5 6.251c-0.828 0-1.5 0.783-1.5 1.749s0.672 1.75 1.5 1.75c0.829 0 1.5-0.783 1.5-1.75s-0.671-1.749-1.5-1.749zM7.501 9.75c0.828 0 1.499-0.783 1.499-1.75s-0.672-1.75-1.5-1.75c-0.828 0-1.5 0.783-1.5 1.75s0.672 1.75 1.501 1.75zM13 12.25h-6c-0.414 0-0.75 0.336-0.75 0.75s0.336 0.75 0.75 0.75h6c0.414 0 0.75-0.336 0.75-0.75s-0.335-0.75-0.75-0.75z"></path>
</symbol>
<symbol id="icon-happy" viewBox="0 0 20 20">
<path d="M10 0.4c-5.302 0-9.6 4.298-9.6 9.6s4.298 9.6 9.6 9.6c5.301 0 9.6-4.298 9.6-9.601 0-5.301-4.299-9.599-9.6-9.599zM10 17.599c-4.197 0-7.6-3.402-7.6-7.6s3.402-7.599 7.6-7.599c4.197 0 7.601 3.402 7.601 7.6s-3.404 7.599-7.601 7.599zM7.501 9.75c0.828 0 1.499-0.783 1.499-1.75s-0.672-1.75-1.5-1.75-1.5 0.783-1.5 1.75 0.672 1.75 1.501 1.75zM12.5 9.75c0.829 0 1.5-0.783 1.5-1.75s-0.672-1.75-1.5-1.75-1.5 0.784-1.5 1.75 0.672 1.75 1.5 1.75zM14.341 11.336c-0.363-0.186-0.815-0.043-1.008 0.32-0.034 0.066-0.869 1.593-3.332 1.593-2.451 0-3.291-1.513-3.333-1.592-0.188-0.365-0.632-0.514-1.004-0.329-0.37 0.186-0.52 0.636-0.335 1.007 0.050 0.099 1.248 2.414 4.672 2.414 3.425 0 4.621-2.316 4.67-2.415 0.184-0.367 0.036-0.81-0.33-0.998z"></path>
</symbol>
<symbol id="icon-flirt" viewBox="0 0 20 20">
<path d="M7.5 9.75c0.829 0 1.5-0.783 1.5-1.75s-0.671-1.75-1.5-1.75-1.5 0.784-1.5 1.75 0.672 1.75 1.5 1.75zM10 0.4c-5.302 0-9.6 4.298-9.6 9.6s4.298 9.6 9.6 9.6c5.301 0 9.6-4.298 9.6-9.601 0-5.301-4.299-9.599-9.6-9.599zM10 17.599c-4.197 0-7.6-3.402-7.6-7.6 0-4.197 3.402-7.6 7.6-7.6s7.6 3.403 7.6 7.601c0 4.197-3.403 7.599-7.6 7.599zM14.341 11.336c-0.363-0.187-0.815-0.043-1.008 0.32-0.034 0.065-0.869 1.593-3.332 1.593-2.451 0-3.291-1.513-3.333-1.592-0.188-0.365-0.632-0.514-1.004-0.329-0.37 0.185-0.521 0.636-0.335 1.007 0.050 0.099 1.248 2.414 4.672 2.414 3.425 0 4.621-2.316 4.67-2.415 0.184-0.367 0.036-0.81-0.33-0.998zM11.25 8.75h2.5c0.414 0 0.75-0.336 0.75-0.75s-0.336-0.75-0.75-0.75h-2.5c-0.414 0-0.75 0.336-0.75 0.75s0.336 0.75 0.75 0.75z"></path>
</symbol>
<symbol id="icon-off" viewBox="0 0 20 20">
<path d="M15.82 2.5q0.664 0 1.172 0.508t0.508 1.172v11.641q0 0.664-0.508 1.172t-1.172 0.508h-11.641q-0.664 0-1.172-0.508t-0.508-1.172v-11.641q0-0.664 0.508-1.172t1.172-0.508h11.641zM15.82 4.18h-11.641v11.641h11.641v-11.641z"></path>
</symbol>
<symbol id="icon-on" viewBox="0 0 20 20">
<path d="M8.32 14.18l7.5-7.5-1.172-1.211-6.328 6.328-2.969-2.969-1.172 1.172zM15.82 2.5q0.703 0 1.191 0.488t0.488 1.191v11.641q0 0.703-0.488 1.191t-1.191 0.488h-11.641q-0.703 0-1.191-0.488t-0.488-1.191v-11.641q0-0.703 0.488-1.191t1.191-0.488h11.641z"></path>
</symbol>
<symbol id="icon-add-circle" viewBox="0 0 20 20">
<path d="M10 16.68q2.734 0 4.707-1.973t1.973-4.707-1.973-4.707-4.707-1.973-4.707 1.973-1.973 4.707 1.973 4.707 4.707 1.973zM10 1.68q3.438 0 5.879 2.441t2.441 5.879-2.441 5.879-5.879 2.441-5.879-2.441-2.441-5.879 2.441-5.879 5.879-2.441zM10.82 5.82v3.359h3.359v1.641h-3.359v3.359h-1.641v-3.359h-3.359v-1.641h3.359v-3.359h1.641z"></path>
</symbol>
<symbol id="icon-add-circle-solid" viewBox="0 0 20 20">
<path d="M14.18 10.82v-1.641h-3.359v-3.359h-1.641v3.359h-3.359v1.641h3.359v3.359h1.641v-3.359h3.359zM10 1.68q3.438 0 5.879 2.441t2.441 5.879-2.441 5.879-5.879 2.441-5.879-2.441-2.441-5.879 2.441-5.879 5.879-2.441z"></path>
</symbol>
<symbol id="icon-add" viewBox="0 0 20 20">
<path d="M15.82 10.82h-5v5h-1.641v-5h-5v-1.641h5v-5h1.641v5h5v1.641z"></path>
</symbol>
<symbol id="icon-save" viewBox="0 0 20 20">
<path d="M12.5 7.5v-3.32h-8.32v3.32h8.32zM10 15.82q1.016 0 1.758-0.742t0.742-1.758-0.742-1.758-1.758-0.742-1.758 0.742-0.742 1.758 0.742 1.758 1.758 0.742zM14.18 2.5l3.32 3.32v10q0 0.664-0.508 1.172t-1.172 0.508h-11.641q-0.703 0-1.191-0.488t-0.488-1.191v-11.641q0-0.703 0.488-1.191t1.191-0.488h10z"></path>
</symbol>
<symbol id="icon-power" viewBox="0 0 20 20">
<path d="M14.844 4.297q2.656 2.266 2.656 5.703 0 3.125-2.188 5.313t-5.313 2.188-5.313-2.188-2.188-5.313q0-1.406 0.781-3.086t1.875-2.617l1.172 1.172q-0.898 0.742-1.523 2.070t-0.625 2.461q0 2.422 1.699 4.121t4.121 1.699 4.121-1.699 1.699-4.121q0-1.133-0.625-2.461t-1.523-2.031zM10.82 2.5v8.32h-1.641v-8.32h1.641z"></path>
</symbol>
<symbol id="icon-settings" viewBox="0 0 20 20">
<path d="M10 12.93q1.211 0 2.070-0.859t0.859-2.070-0.859-2.070-2.070-0.859-2.070 0.859-0.859 2.070 0.859 2.070 2.070 0.859zM16.211 10.82l1.758 1.367q0.273 0.195 0.078 0.547l-1.68 2.891q-0.156 0.273-0.508 0.156l-2.070-0.82q-0.82 0.586-1.406 0.82l-0.313 2.188q-0.078 0.352-0.391 0.352h-3.359q-0.313 0-0.391-0.352l-0.313-2.188q-0.742-0.313-1.406-0.82l-2.070 0.82q-0.352 0.117-0.508-0.156l-1.68-2.891q-0.195-0.352 0.078-0.547l1.758-1.367q-0.039-0.273-0.039-0.82t0.039-0.82l-1.758-1.367q-0.273-0.195-0.078-0.547l1.68-2.891q0.156-0.273 0.508-0.156l2.070 0.82q0.82-0.586 1.406-0.82l0.313-2.188q0.078-0.352 0.391-0.352h3.359q0.313 0 0.391 0.352l0.313 2.188q0.742 0.313 1.406 0.82l2.070-0.82q0.352-0.117 0.508 0.156l1.68 2.891q0.195 0.352-0.078 0.547l-1.758 1.367q0.039 0.273 0.039 0.82t-0.039 0.82z"></path>
</symbol>
<symbol id="icon-user-add" viewBox="0 0 20 20">
<path d="M10.82 6.68q0-0.938-0.449-1.699t-1.191-1.211-1.68-0.449-1.68 0.449-1.191 1.211-0.449 1.699q0 0.898 0.449 1.66t1.191 1.211 1.68 0.449 1.68-0.449 1.191-1.211 0.449-1.66zM9.18 6.68q0 0.664-0.488 1.152t-1.191 0.488-1.191-0.488-0.488-1.152q0-0.703 0.488-1.191t1.191-0.488 1.191 0.488 0.488 1.191zM0.82 15v1.68h13.359v-1.68q0-0.664-0.469-1.191t-1.23-0.938-1.66-0.664-1.777-0.391-1.543-0.137-1.543 0.137-1.777 0.391-1.66 0.664-1.23 0.938-0.469 1.191zM2.5 15q0.078-0.234 0.527-0.508t1.191-0.547 1.582-0.449 1.699-0.176 1.699 0.176 1.563 0.449 1.191 0.547 0.547 0.508h-10zM16.68 12.5v-2.5h2.5v-1.68h-2.5v-2.5h-1.68v2.5h-2.5v1.68h2.5v2.5h1.68z"></path>
</symbol>
<symbol id="icon-user-outline" viewBox="0 0 20 20">
<path d="M10 10.82q1.25 0 2.734 0.352t2.715 1.172 1.23 1.836v2.5h-13.359v-2.5q0-1.016 1.23-1.836t2.715-1.172 2.734-0.352zM10 3.32q1.367 0 2.344 0.996t0.977 2.363-0.977 2.344-2.344 0.977-2.344-0.977-0.977-2.344 0.977-2.363 2.344-0.996zM10 12.422q-1.719 0-3.398 0.645t-1.68 1.113v0.898h10.156v-0.898q0-0.469-1.68-1.113t-3.398-0.645zM10 4.922q-0.742 0-1.25 0.508t-0.508 1.25 0.508 1.23 1.25 0.488 1.25-0.488 0.508-1.23-0.508-1.25-1.25-0.508z"></path>
</symbol>
<symbol id="icon-user-add-solid" viewBox="0 0 20 20">
<path d="M12.5 11.68q2.109 0 4.395 0.918t2.285 2.402v1.68h-13.359v-1.68q0-1.484 2.285-2.402t4.395-0.918zM5 8.32h2.5v1.68h-2.5v2.5h-1.68v-2.5h-2.5v-1.68h2.5v-2.5h1.68v2.5zM12.5 10q-1.367 0-2.344-0.977t-0.977-2.344 0.977-2.363 2.344-0.996 2.344 0.996 0.977 2.363-0.977 2.344-2.344 0.977z"></path>
</symbol>
<symbol id="icon-user" viewBox="0 0 20 20">
<path d="M10 11.68q2.109 0 4.395 0.918t2.285 2.402v1.68h-13.359v-1.68q0-1.484 2.285-2.402t4.395-0.918zM10 10q-1.367 0-2.344-0.977t-0.977-2.344 0.977-2.363 2.344-0.996 2.344 0.996 0.977 2.363-0.977 2.344-2.344 0.977z"></path>
</symbol>
<symbol id="icon-upload" viewBox="0 0 20 20">
<path d="M6.68 10.859l3.32-3.359 3.32 3.359-1.172 1.172-1.328-1.328v3.477h-1.641v-3.477l-1.328 1.328zM16.68 15v-8.32h-13.359v8.32h13.359zM16.68 5q0.664 0 1.152 0.508t0.488 1.172v8.32q0 0.664-0.488 1.172t-1.152 0.508h-13.359q-0.664 0-1.152-0.508t-0.488-1.172v-10q0-0.664 0.488-1.172t1.152-0.508h5l1.68 1.68h6.68z"></path>
</symbol>
<symbol id="icon-folder-new" viewBox="0 0 20 20">
<path d="M15.82 11.68v-1.68h-2.5v-2.5h-1.641v2.5h-2.5v1.68h2.5v2.5h1.641v-2.5h2.5zM16.68 5q0.703 0 1.172 0.488t0.469 1.191v8.32q0 0.703-0.469 1.191t-1.172 0.488h-13.359q-0.703 0-1.172-0.488t-0.469-1.191v-10q0-0.703 0.469-1.191t1.172-0.488h5l1.68 1.68h6.68z"></path>
</symbol>
<symbol id="icon-folder-shared" viewBox="0 0 20 20">
<path d="M15.82 14.18v-0.859q0-0.742-1.152-1.191t-2.168-0.449-2.168 0.449-1.152 1.191v0.859h6.641zM12.5 7.5q-0.664 0-1.172 0.508t-0.508 1.172 0.508 1.152 1.172 0.488 1.172-0.488 0.508-1.152-0.508-1.172-1.172-0.508zM16.68 5q0.664 0 1.152 0.508t0.488 1.172v8.32q0 0.664-0.488 1.172t-1.152 0.508h-13.359q-0.664 0-1.152-0.508t-0.488-1.172v-10q0-0.664 0.488-1.172t1.152-0.508h5l1.68 1.68h6.68z"></path>
</symbol>
<symbol id="icon-folder-open" viewBox="0 0 20 20">
<path d="M16.68 15v-8.32h-13.359v8.32h13.359zM16.68 5q0.664 0 1.152 0.508t0.488 1.172v8.32q0 0.664-0.488 1.172t-1.152 0.508h-13.359q-0.664 0-1.152-0.508t-0.488-1.172v-10q0-0.664 0.488-1.172t1.152-0.508h5l1.68 1.68h6.68z"></path>
</symbol>
<symbol id="icon-folder" viewBox="0 0 20 20">
<path d="M8.32 3.32l1.68 1.68h6.68q0.664 0 1.152 0.508t0.488 1.172v8.32q0 0.664-0.488 1.172t-1.152 0.508h-13.359q-0.664 0-1.152-0.508t-0.488-1.172v-10q0-0.664 0.488-1.172t1.152-0.508h5z"></path>
</symbol>
<symbol id="icon-exit" viewBox="0 0 20 20">
<path d="M15.82 2.5q0.664 0 1.172 0.508t0.508 1.172v11.641q0 0.664-0.508 1.172t-1.172 0.508h-11.641q-0.703 0-1.191-0.488t-0.488-1.191v-3.32h1.68v3.32h11.641v-11.641h-11.641v3.32h-1.68v-3.32q0-0.703 0.488-1.191t1.191-0.488h11.641zM8.398 13.008l2.148-2.188h-8.047v-1.641h8.047l-2.148-2.188 1.172-1.172 4.18 4.18-4.18 4.18z"></path>
</symbol>
<symbol id="icon-close" viewBox="0 0 20 20">
<path d="M15.82 5.352l-4.648 4.648 4.648 4.648-1.172 1.172-4.648-4.648-4.648 4.648-1.172-1.172 4.648-4.648-4.648-4.648 1.172-1.172 4.648 4.648 4.648-4.648z"></path>
</symbol>
<symbol id="icon-cancel" viewBox="0 0 20 20">
<path d="M14.18 13.008l-3.008-3.008 3.008-3.008-1.172-1.172-3.008 3.008-3.008-3.008-1.172 1.172 3.008 3.008-3.008 3.008 1.172 1.172 3.008-3.008 3.008 3.008zM10 1.68q3.438 0 5.879 2.441t2.441 5.879-2.441 5.879-5.879 2.441-5.879-2.441-2.441-5.879 2.441-5.879 5.879-2.441z"></path>
</symbol>
<symbol id="icon-logout" viewBox="0 0 20 20">
<path d="M3.32 4.18v11.641h6.68v1.68h-6.68q-0.664 0-1.152-0.508t-0.488-1.172v-11.641q0-0.664 0.488-1.172t1.152-0.508h6.68v1.68h-6.68zM14.18 5.82l4.141 4.18-4.141 4.18-1.172-1.211 2.148-2.148h-8.477v-1.641h8.477l-2.148-2.188z"></path>
</symbol>
<symbol id="icon-user-remove" viewBox="0 0 20 20">
<path d="M11.68 6.68q0-0.938-0.449-1.699t-1.211-1.211-1.699-0.449q-0.898 0-1.66 0.449t-1.211 1.211-0.449 1.699q0 0.898 0.449 1.66t1.211 1.211 1.66 0.449q0.938 0 1.699-0.449t1.211-1.211 0.449-1.66zM14.18 8.32v1.68h5v-1.68h-5zM1.68 15v1.68h13.32v-1.68q0-0.664-0.469-1.191t-1.23-0.938-1.66-0.664-1.777-0.391-1.543-0.137-1.523 0.137-1.758 0.391-1.66 0.664-1.23 0.938-0.469 1.191z"></path>
</symbol>
<symbol id="icon-remove" viewBox="0 0 20 20">
<path d="M10 16.68q2.734 0 4.707-1.973t1.973-4.707-1.973-4.707-4.707-1.973-4.707 1.973-1.973 4.707 1.973 4.707 4.707 1.973zM10 1.68q3.438 0 5.879 2.441t2.441 5.879-2.441 5.879-5.879 2.441-5.879-2.441-2.441-5.879 2.441-5.879 5.879-2.441zM12.148 6.68l1.172 1.172-2.148 2.148 2.148 2.148-1.172 1.172-2.148-2.148-2.148 2.148-1.172-1.172 2.148-2.148-2.148-2.148 1.172-1.172 2.148 2.148z"></path>
</symbol>
<symbol id="icon-eye" viewBox="0 0 20 20">
<path d="M10 7.5q1.016 0 1.758 0.742t0.742 1.758-0.742 1.758-1.758 0.742-1.758-0.742-0.742-1.758 0.742-1.758 1.758-0.742zM10 14.18q1.719 0 2.949-1.23t1.23-2.949-1.23-2.949-2.949-1.23-2.949 1.23-1.23 2.949 1.23 2.949 2.949 1.23zM10 3.75q3.086 0 5.586 1.719t3.594 4.531q-1.094 2.813-3.594 4.531t-5.586 1.719-5.586-1.719-3.594-4.531q1.094-2.813 3.594-4.531t5.586-1.719z"></path>
</symbol>
<symbol id="icon-delete" viewBox="0 0 20 20">
<path d="M15.82 3.32v1.68h-11.641v-1.68h2.891l0.859-0.82h4.141l0.859 0.82h2.891zM5 15.82v-10h10v10q0 0.664-0.508 1.172t-1.172 0.508h-6.641q-0.664 0-1.172-0.508t-0.508-1.172z"></path>
</symbol>
<symbol id="icon-edit" viewBox="0 0 20 20">
<path d="M17.266 5.859l-1.523 1.523-3.125-3.125 1.523-1.523q0.234-0.234 0.586-0.234t0.586 0.234l1.953 1.953q0.234 0.234 0.234 0.586t-0.234 0.586zM2.5 14.375l9.219-9.219 3.125 3.125-9.219 9.219h-3.125v-3.125z"></path>
</symbol>
</defs>
</svg>
