<!-- Generated by IcoMoon.io -->
<svg version="1.1" xmlns="http://www.w3.org/2000/svg" width="20" height="20" viewBox="0 0 20 20">
<title>user-add</title>
<path d="M10.82 6.68q0-0.938-0.449-1.699t-1.191-1.211-1.68-0.449-1.68 0.449-1.191 1.211-0.449 1.699q0 0.898 0.449 1.66t1.191 1.211 1.68 0.449 1.68-0.449 1.191-1.211 0.449-1.66zM9.18 6.68q0 0.664-0.488 1.152t-1.191 0.488-1.191-0.488-0.488-1.152q0-0.703 0.488-1.191t1.191-0.488 1.191 0.488 0.488 1.191zM0.82 15v1.68h13.359v-1.68q0-0.664-0.469-1.191t-1.23-0.938-1.66-0.664-1.777-0.391-1.543-0.137-1.543 0.137-1.777 0.391-1.66 0.664-1.23 0.938-0.469 1.191zM2.5 15q0.078-0.234 0.527-0.508t1.191-0.547 1.582-0.449 1.699-0.176 1.699 0.176 1.563 0.449 1.191 0.547 0.547 0.508h-10zM16.68 12.5v-2.5h2.5v-1.68h-2.5v-2.5h-1.68v2.5h-2.5v1.68h2.5v2.5h1.68z"></path>
</svg>
