<!-- Generated by IcoMoon.io -->
<svg version="1.1" xmlns="http://www.w3.org/2000/svg" width="20" height="20" viewBox="0 0 20 20">
<title>user-outline</title>
<path d="M10 10.82q1.25 0 2.734 0.352t2.715 1.172 1.23 1.836v2.5h-13.359v-2.5q0-1.016 1.23-1.836t2.715-1.172 2.734-0.352zM10 3.32q1.367 0 2.344 0.996t0.977 2.363-0.977 2.344-2.344 0.977-2.344-0.977-0.977-2.344 0.977-2.363 2.344-0.996zM10 12.422q-1.719 0-3.398 0.645t-1.68 1.113v0.898h10.156v-0.898q0-0.469-1.68-1.113t-3.398-0.645zM10 4.922q-0.742 0-1.25 0.508t-0.508 1.25 0.508 1.23 1.25 0.488 1.25-0.488 0.508-1.23-0.508-1.25-1.25-0.508z"></path>
</svg>
