<?xml version="1.0" encoding="utf-8"?>
<!-- Generator: Adobe Illustrator 25.2.1, SVG Export Plug-In . SVG Version: 6.00 Build 0)  -->
<svg version="1.1" id="Capa_1" xmlns="http://www.w3.org/2000/svg" xmlns:xlink="http://www.w3.org/1999/xlink" x="0px" y="0px"
	 viewBox="0 0 20 20" style="enable-background:new 0 0 20 20;" xml:space="preserve">
<style type="text/css">
	.st0{fill:#FFFFFF;}
</style>
<path class="st0" d="M10,11.7c1.4,0,2.9,0.3,4.4,0.9c1.5,0.6,2.3,1.4,2.3,2.4v1.7H3.3V15c0-1,0.8-1.8,2.3-2.4S8.6,11.7,10,11.7
	L10,11.7z M10,10c-0.9,0-1.7-0.3-2.3-1c-0.7-0.7-1-1.4-1-2.3c0-0.9,0.3-1.7,1-2.4s1.4-1,2.3-1c0.9,0,1.7,0.3,2.3,1s1,1.5,1,2.4
	S13,8.4,12.3,9C11.7,9.7,10.9,10,10,10z"/>
</svg>
