<!-- Generated by IcoMoon.io -->
<svg version="1.1" xmlns="http://www.w3.org/2000/svg" width="20" height="20" viewBox="0 0 20 20">
<title>user-remove</title>
<path d="M11.68 6.68q0-0.938-0.449-1.699t-1.211-1.211-1.699-0.449q-0.898 0-1.66 0.449t-1.211 1.211-0.449 1.699q0 0.898 0.449 1.66t1.211 1.211 1.66 0.449q0.938 0 1.699-0.449t1.211-1.211 0.449-1.66zM14.18 8.32v1.68h5v-1.68h-5zM1.68 15v1.68h13.32v-1.68q0-0.664-0.469-1.191t-1.23-0.938-1.66-0.664-1.777-0.391-1.543-0.137-1.523 0.137-1.758 0.391-1.66 0.664-1.23 0.938-0.469 1.191z"></path>
</svg>
